<svg xmlns="http://www.w3.org/2000/svg" width="15.469" height="15.466" viewBox="0 0 15.469 15.466">
  <path id="instagram-brands" d="M7.661,35.593a3.965,3.965,0,1,0,3.965,3.965A3.959,3.959,0,0,0,7.661,35.593Zm0,6.543a2.578,2.578,0,1,1,2.578-2.578,2.583,2.583,0,0,1-2.578,2.578Zm5.052-6.705a.925.925,0,1,1-.925-.925A.923.923,0,0,1,12.714,35.431Zm2.626.939a4.577,4.577,0,0,0-1.249-3.241,4.607,4.607,0,0,0-3.241-1.249c-1.277-.072-5.1-.072-6.381,0a4.6,4.6,0,0,0-3.241,1.246A4.592,4.592,0,0,0-.021,36.366c-.072,1.277-.072,5.1,0,6.381a4.577,4.577,0,0,0,1.249,3.241,4.613,4.613,0,0,0,3.241,1.249c1.277.072,5.1.072,6.381,0a4.577,4.577,0,0,0,3.241-1.249,4.607,4.607,0,0,0,1.249-3.241C15.413,41.47,15.413,37.646,15.34,36.369Zm-1.65,7.748a2.61,2.61,0,0,1-1.47,1.47,17.045,17.045,0,0,1-4.559.311A17.178,17.178,0,0,1,3.1,45.587a2.61,2.61,0,0,1-1.47-1.47,17.045,17.045,0,0,1-.311-4.559A17.178,17.178,0,0,1,1.632,35a2.61,2.61,0,0,1,1.47-1.47,17.045,17.045,0,0,1,4.559-.311,17.178,17.178,0,0,1,4.559.311A2.61,2.61,0,0,1,13.691,35,17.045,17.045,0,0,1,14,39.558,17.035,17.035,0,0,1,13.691,44.117Z" transform="translate(0.075 -31.825)" fill="#ad8c66"/>
</svg>
