<svg xmlns="http://www.w3.org/2000/svg" width="15.466" height="15.466" viewBox="0 0 15.466 15.466">
  <path id="whatsapp-brands" d="M13.149,34.247A7.666,7.666,0,0,0,1.087,43.5L0,47.466,4.063,46.4a7.641,7.641,0,0,0,3.663.932h0a7.615,7.615,0,0,0,5.42-13.084ZM7.729,46.04a6.359,6.359,0,0,1-3.245-.887l-.231-.138-2.41.632L2.486,43.3l-.152-.242a6.382,6.382,0,1,1,11.838-3.387A6.441,6.441,0,0,1,7.729,46.04Zm3.494-4.771c-.19-.1-1.132-.559-1.308-.621s-.3-.1-.432.1-.494.621-.608.753-.224.145-.414.048a5.213,5.213,0,0,1-2.606-2.278c-.2-.338.2-.314.563-1.046a.355.355,0,0,0-.017-.335c-.048-.1-.432-1.039-.59-1.422s-.314-.321-.432-.328-.238-.007-.366-.007a.709.709,0,0,0-.511.238,2.152,2.152,0,0,0-.67,1.6,3.752,3.752,0,0,0,.78,1.982A8.557,8.557,0,0,0,7.885,42.84a3.747,3.747,0,0,0,2.3.48,1.961,1.961,0,0,0,1.291-.911,1.6,1.6,0,0,0,.11-.911C11.541,41.411,11.413,41.362,11.223,41.269Z" transform="translate(0 -32)" fill="#ad8c66"/>
</svg>
